<svg width="100" height="25" viewBox="0 0 100 25" fill="none" xmlns="http://www.w3.org/2000/svg">
<path d="M1.6108 20V8.54545H3.31108V10.3352H3.46023C3.69886 9.72372 4.08416 9.24893 4.61612 8.91087C5.14808 8.56783 5.78693 8.39631 6.53267 8.39631C7.28835 8.39631 7.91726 8.56783 8.41939 8.91087C8.92649 9.24893 9.32173 9.72372 9.60511 10.3352H9.72443C10.0178 9.74361 10.4577 9.27379 11.0444 8.92578C11.631 8.5728 12.3345 8.39631 13.1548 8.39631C14.179 8.39631 15.0167 8.71697 15.668 9.35831C16.3192 9.99467 16.6449 10.9865 16.6449 12.3338V20H14.8849V12.3338C14.8849 11.4886 14.6538 10.8846 14.1914 10.5217C13.729 10.1587 13.1847 9.97727 12.5582 9.97727C11.7528 9.97727 11.1289 10.2209 10.6864 10.7081C10.244 11.1903 10.0227 11.8018 10.0227 12.5426V20H8.23295V12.1548C8.23295 11.5036 8.02166 10.979 7.59908 10.5813C7.17649 10.1786 6.6321 9.97727 5.96591 9.97727C5.50852 9.97727 5.08097 10.0991 4.68324 10.3427C4.29048 10.5863 3.9723 10.9244 3.72869 11.3569C3.49006 11.7844 3.37074 12.2791 3.37074 12.8409V20H1.6108ZM20.5861 24.2955C20.2878 24.2955 20.0218 24.2706 19.7882 24.2209C19.5545 24.1761 19.3929 24.1314 19.3034 24.0866L19.7509 22.5355C20.1784 22.6449 20.5563 22.6847 20.8844 22.6548C21.2125 22.625 21.5034 22.4783 21.7569 22.2148C22.0154 21.9563 22.2516 21.5362 22.4654 20.9545L22.7935 20.0597L18.5577 8.54545H20.4668L23.6287 17.6733H23.748L26.91 8.54545H28.8191L23.9569 21.6705C23.7381 22.2621 23.4672 22.7518 23.144 23.1396C22.8208 23.5323 22.4455 23.8232 22.0179 24.0121C21.5953 24.201 21.1181 24.2955 20.5861 24.2955Z" fill="white"/>
<path d="M42.2898 9.5C42.1257 8.99787 41.9094 8.54794 41.641 8.15021C41.3775 7.74751 41.0618 7.40447 40.6939 7.12109C40.331 6.83771 39.9183 6.62145 39.456 6.4723C38.9936 6.32315 38.4865 6.24858 37.9347 6.24858C37.0298 6.24858 36.207 6.48224 35.4663 6.94957C34.7255 7.4169 34.1364 8.10547 33.6989 9.01527C33.2614 9.92507 33.0426 11.0412 33.0426 12.3636C33.0426 13.6861 33.2638 14.8022 33.7063 15.712C34.1488 16.6218 34.7479 17.3104 35.5036 17.7777C36.2592 18.245 37.1094 18.4787 38.054 18.4787C38.929 18.4787 39.6996 18.2923 40.3658 17.9194C41.0369 17.5415 41.5589 17.0096 41.9318 16.3235C42.3097 15.6325 42.4986 14.8196 42.4986 13.8849L43.0653 14.0043H38.4716V12.3636H44.2884V14.0043C44.2884 15.2621 44.0199 16.3558 43.483 17.2855C42.951 18.2152 42.2152 18.9361 41.2756 19.4482C40.3409 19.9553 39.267 20.2088 38.054 20.2088C36.7017 20.2088 35.5135 19.8906 34.4893 19.2543C33.4702 18.6179 32.6747 17.7131 32.103 16.5398C31.5362 15.3665 31.2528 13.9744 31.2528 12.3636C31.2528 11.1555 31.4144 10.0692 31.7376 9.10476C32.0657 8.1353 32.5281 7.31001 33.1246 6.62891C33.7212 5.9478 34.4272 5.42578 35.2425 5.06285C36.0579 4.69993 36.9553 4.51847 37.9347 4.51847C38.7401 4.51847 39.4908 4.64027 40.1868 4.88388C40.8878 5.12251 41.5117 5.46307 42.0586 5.90554C42.6104 6.34304 43.0703 6.86754 43.4382 7.47905C43.8061 8.08558 44.0597 8.75923 44.1989 9.5H42.2898ZM50.588 20.2685C49.8621 20.2685 49.2034 20.1317 48.6118 19.8583C48.0202 19.5799 47.5503 19.1797 47.2023 18.6577C46.8543 18.1307 46.6803 17.4943 46.6803 16.7486C46.6803 16.0923 46.8096 15.5604 47.0681 15.1527C47.3266 14.7401 47.6721 14.4169 48.1047 14.1832C48.5372 13.9496 49.0145 13.7756 49.5365 13.6612C50.0635 13.5419 50.593 13.4474 51.1249 13.3778C51.8209 13.2884 52.3852 13.2212 52.8177 13.1765C53.2552 13.1268 53.5734 13.0447 53.7723 12.9304C53.9761 12.8161 54.078 12.6172 54.078 12.3338V12.2741C54.078 11.5384 53.8767 10.9666 53.474 10.5589C53.0763 10.1513 52.4722 9.94744 51.6618 9.94744C50.8216 9.94744 50.1629 10.1314 49.6856 10.4993C49.2084 10.8672 48.8728 11.2599 48.6789 11.6776L47.0084 11.081C47.3067 10.3849 47.7045 9.84304 48.2016 9.45526C48.7037 9.0625 49.2506 8.78906 49.8422 8.63494C50.4388 8.47585 51.0255 8.39631 51.6022 8.39631C51.9701 8.39631 52.3927 8.44105 52.8699 8.53054C53.3522 8.61506 53.817 8.79155 54.2645 9.06001C54.7169 9.32848 55.0922 9.73366 55.3905 10.2756C55.6888 10.8175 55.838 11.5433 55.838 12.4531V20H54.078V18.4489H53.9885C53.8692 18.6974 53.6704 18.9634 53.392 19.2468C53.1135 19.5302 52.7432 19.7713 52.2808 19.9702C51.8184 20.169 51.2542 20.2685 50.588 20.2685ZM50.8564 18.6875C51.5525 18.6875 52.1391 18.5508 52.6164 18.2773C53.0986 18.0039 53.4616 17.6509 53.7052 17.2184C53.9537 16.7859 54.078 16.331 54.078 15.8537V14.2429C54.0035 14.3324 53.8394 14.4144 53.5858 14.489C53.3373 14.5586 53.0489 14.6207 52.7208 14.6754C52.3976 14.7251 52.0819 14.7699 51.7737 14.8097C51.4704 14.8445 51.2243 14.8743 51.0354 14.8991C50.578 14.9588 50.1505 15.0558 49.7528 15.19C49.36 15.3192 49.0418 15.5156 48.7982 15.7791C48.5596 16.0376 48.4403 16.3906 48.4403 16.8381C48.4403 17.4496 48.6665 17.9119 49.1189 18.2251C49.5763 18.5334 50.1555 18.6875 50.8564 18.6875ZM60.8102 4.72727V20H59.0502V4.72727H60.8102ZM65.7936 4.72727V20H64.0336V4.72727H65.7936ZM73.8196 20.2386C72.7159 20.2386 71.7638 19.995 70.9634 19.5078C70.168 19.0156 69.554 18.3295 69.1214 17.4496C68.6939 16.5646 68.4801 15.5355 68.4801 14.3622C68.4801 13.1889 68.6939 12.1548 69.1214 11.2599C69.554 10.3601 70.1555 9.65909 70.9261 9.15696C71.7017 8.64986 72.6065 8.39631 73.6406 8.39631C74.2372 8.39631 74.8263 8.49574 75.408 8.6946C75.9897 8.89347 76.5192 9.21662 76.9964 9.66406C77.4737 10.1065 77.854 10.6932 78.1374 11.424C78.4208 12.1548 78.5625 13.0547 78.5625 14.1236V14.8693H69.733V13.348H76.7727C76.7727 12.7017 76.6435 12.125 76.3849 11.6179C76.1314 11.1108 75.7685 10.7106 75.2962 10.4173C74.8288 10.1239 74.277 9.97727 73.6406 9.97727C72.9396 9.97727 72.3331 10.1513 71.821 10.4993C71.3139 10.8423 70.9237 11.2898 70.6502 11.8416C70.3768 12.3935 70.2401 12.9851 70.2401 13.6165V14.6307C70.2401 15.4957 70.3892 16.229 70.6875 16.8306C70.9908 17.4272 71.4109 17.8821 71.9478 18.1953C72.4847 18.5036 73.1087 18.6577 73.8196 18.6577C74.282 18.6577 74.6996 18.593 75.0724 18.4638C75.4503 18.3295 75.7759 18.1307 76.0494 17.8672C76.3228 17.5987 76.5341 17.2656 76.6832 16.8679L78.3835 17.3452C78.2045 17.9219 77.9038 18.429 77.4812 18.8665C77.0586 19.299 76.5366 19.6371 75.9151 19.8807C75.2937 20.1193 74.5952 20.2386 73.8196 20.2386ZM81.2397 20V8.54545H82.94V10.2756H83.0593C83.2681 9.70881 83.646 9.24893 84.1928 8.89595C84.7397 8.54297 85.3562 8.36648 86.0423 8.36648C86.1715 8.36648 86.3331 8.36896 86.527 8.37393C86.7209 8.37891 86.8675 8.38636 86.967 8.39631V10.1861C86.9073 10.1712 86.7706 10.1488 86.5568 10.119C86.348 10.0842 86.1268 10.0668 85.8931 10.0668C85.3363 10.0668 84.8391 10.1836 84.4016 10.4173C83.9691 10.646 83.6261 10.9641 83.3725 11.3718C83.1239 11.7745 82.9996 12.2344 82.9996 12.7514V20H81.2397ZM90.5353 24.2955C90.237 24.2955 89.9711 24.2706 89.7374 24.2209C89.5037 24.1761 89.3422 24.1314 89.2527 24.0866L89.7001 22.5355C90.1277 22.6449 90.5055 22.6847 90.8336 22.6548C91.1618 22.625 91.4526 22.4783 91.7061 22.2148C91.9647 21.9563 92.2008 21.5362 92.4146 20.9545L92.7427 20.0597L88.5069 8.54545H90.416L93.5779 17.6733H93.6973L96.8592 8.54545H98.7683L93.9061 21.6705C93.6873 22.2621 93.4164 22.7518 93.0932 23.1396C92.7701 23.5323 92.3947 23.8232 91.9672 24.0121C91.5446 24.201 91.0673 24.2955 90.5353 24.2955Z" fill="#6A6A6A"/>
</svg>
