<svg width="51" height="51" viewBox="0 0 51 51" fill="none" xmlns="http://www.w3.org/2000/svg">
<path d="M38.25 42.5C38.25 39.1185 36.9067 35.8755 34.5156 33.4844C32.1245 31.0933 28.8815 29.75 25.5 29.75C22.1185 29.75 18.8755 31.0933 16.4844 33.4844C14.0933 35.8755 12.75 39.1185 12.75 42.5" stroke="#6A6A6A" stroke-width="2" stroke-linecap="round" stroke-linejoin="round"/>
<path d="M25.5 29.75C30.1944 29.75 34 25.9444 34 21.25C34 16.5556 30.1944 12.75 25.5 12.75C20.8056 12.75 17 16.5556 17 21.25C17 25.9444 20.8056 29.75 25.5 29.75Z" stroke="#6A6A6A" stroke-width="2" stroke-linecap="round" stroke-linejoin="round"/>
<path d="M25.5 46.75C37.236 46.75 46.75 37.236 46.75 25.5C46.75 13.7639 37.236 4.25 25.5 4.25C13.7639 4.25 4.25 13.7639 4.25 25.5C4.25 37.236 13.7639 46.75 25.5 46.75Z" stroke="#6A6A6A" stroke-width="2" stroke-linecap="round" stroke-linejoin="round"/>
</svg>
